<?xml version="1.0" standalone="yes"?>
<svg xmlns="http://www.w3.org/2000/svg" width="500" height="500">
<path style="fill:#ffffff; stroke:none;" d="M0 0L0 500L500 500L500 0L498.5 0L448 0L383 0L258 0L0 0z"/>
<path style="fill:#7dcefe; stroke:none;" d="M209 116L209.778 116.722L210.306 116.75L211.111 116.944L212.028 116.972L213 117L214 117L216 117L225 117L224.222 116.278L223.694 116.25L222.889 116.056L221.972 116.028L221 116L220 116L218 116L209 116z"/>
<path style="fill:#a8defe; stroke:none;" d="M225 116L225.722 116.722L226.25 116.75L228 117L227.278 116.278L226.75 116.25L225 116z"/>
<path style="fill:#99d9bc; stroke:none;" d="M266 116L266.778 116.722L267.25 116.75L268.056 116.944L270 117L269.222 116.278L268.75 116.25L267.944 116.056L266 116z"/>
<path style="fill:#72cba3; stroke:none;" d="M270 116L270.778 116.722L271.306 116.75L272.111 116.944L273.028 116.972L275 117L277 117L282 117L281.222 116.278L280.694 116.25L279.889 116.056L278.972 116.028L277 116L275 116L270 116z"/>
<path style="fill:#a1dcc1; stroke:none;" d="M282 116L282.722 116.722L283.25 116.75L285 117L284.278 116.278L283.75 116.25L282 116z"/>
<path style="fill:#e9f7f0; stroke:none;" d="M285 116L285.778 116.722L286.25 116.75L287.056 116.944L289 117L288.222 116.278L287.75 116.25L286.944 116.056L285 116z"/>
<path style="fill:#d4effe; stroke:none;" d="M200.667 117.333L201 117.667L201.333 117.667L201 117.333L200.667 117.333z"/>
<path style="fill:#9ddafe; stroke:none;" d="M202.667 117.333L202.667 117.667L203.333 117.667L203 117.333L202.667 117.333z"/>
<path style="fill:#53befe; stroke:none;" d="M245 323L245 321L243.5 320.917L241.944 320.528L241 320.167L239 319.389L237 318.611L236 318.167L235 317.75L233 316.778L232 316.222L231 315.778L230 315.222L228 314.222L227 313.75L226 313.167L225 312.611L223 311.389L221 310.194L219 308.972L217 307.611L216 306.861L215 306.139L213 304.611L212 303.806L210 302.194L208 300.611L207 299.778L206 298.917L204 297L202 295L200 293L199.028 292L198.083 291L196.389 289L195.611 288L194.806 287L193.194 285L192.417 284L191 282L190.333 281L189 279L187.667 277L187.028 276L186.389 275L185.25 273L184.778 272L184.222 271L183.778 270L183.222 269L182.778 268L181.778 266L181.222 265L180.25 263L179.833 262L178.944 260L178 258L177.083 256L176.694 255L176 253L175.389 251L175.139 250L174.861 249L174.639 248L174.389 247L174.194 246L173.806 244L173.389 242L173.056 240L172.944 239L172.611 237L172.389 236L172.083 234L171.917 232L171.778 231L171.389 229L171.083 227L171.028 226L171 224L171 223L171 220L171 218L171 217L171.028 215L171.083 214L171.389 212L171.611 211L171.944 209L172.056 208L172.389 206L172.611 205L172.917 203L173.083 201L173.389 199L173.639 198L174.139 196L174.389 195L175 193L175.333 192L176 190L176.667 188L177.028 187L177.389 186L177.806 185L178.611 183L179.389 181L179.833 180L180.25 179L180.778 178L181.778 176L182.222 175L182.778 174L183.222 173L183.778 172L184.25 171L185.389 169L186.028 168L187.333 166L188.667 164L189.333 163L190.694 161L191.389 160L192.139 159L193.639 157L194.389 156L196.083 154L197.028 153L199 151L200 150L203 147L205 145L206 144L208 142.028L209 141.083L211 139.389L212 138.639L214 137.139L215 136.389L216 135.694L218 134.333L219 133.667L221 132.333L223 131.028L224 130.389L226 129.25L227 128.778L228 128.222L229 127.778L230 127.222L231 126.778L232 126.222L233 125.778L234 125.25L236 124.389L238 123.611L239 123.194L241 122.389L242.889 121.639L243.694 121.167L244.222 120.972L245 120L243.5 119.278L242.944 119.222L241.944 118.972L240 118.611L239 118.389L237 118L235 117.611L234 117.389L232 117.083L231 117.028L229 117L228 117L226 117L217 117L210 117L208 117L207 117.028L206 117.083L204 117.389L203 117.611L202 117.778L201 117.944L200 118.056L198 118.389L196 118.861L194 119.389L192 120L190 120.583L188 121L186 121.417L184 122.028L182 122.806L180 123.611L178 124.389L177 124.833L176 125.25L174 126.222L173 126.778L172 127.222L170 128.25L169 128.833L168 129.389L166 130.611L164 131.806L163 132.389L161 133.667L160 134.333L159 135L157 136.417L155 138L153 139.611L152 140.389L150 142.083L149 143.028L147 145L145 147L143 149L141.028 151L140.083 152L138.389 154L137.611 155L136 157L134.417 159L133 161L132.333 162L131.667 163L130.389 165L129.806 166L128.611 168L127.389 170L126.833 171L126.25 172L125.222 174L124.778 175L124.222 176L123.25 178L122.833 179L122.389 180L121.611 182L120.806 184L120.028 186L119.417 188L119.194 189L118.806 191L118.583 192L118.306 193L117.694 195L117.389 196L116.861 198L116.639 199L116.389 200L116.194 201L115.806 203L115.611 204L115.222 206L115.083 207L115 209L115 210L115 212L115 221L115 228L115 230L115.028 231L115.083 232L115.389 234L115.611 235L115.944 237L116.056 238L116.389 240L116.611 241L116.944 243L117.056 244L117.389 246L117.639 247L118.139 249L118.389 250L119 252L119.333 253L120.333 256L121.333 259L121.667 260L122.028 261L122.389 262L123.25 264L123.778 265L124.222 266L124.778 267L125.222 268L125.778 269L126.222 270L126.778 271L127.222 272L127.778 273L128.25 274L129.389 276L130.028 277L131.333 279L132.694 281L133.389 282L134.139 283L134.861 284L136.389 286L138 288L139.611 290L140.389 291L142.083 293L143.028 294L145 296L147 297.972L148 298.917L150 300.611L151 301.389L153 303L155 304.583L157 306L158 306.667L160 308L163 310L164 310.667L166 311.972L167 312.611L169 313.75L170 314.222L171 314.778L172 315.222L174 316.222L175 316.778L176 317.222L177 317.75L179 318.611L181 319.306L182 319.611L183 319.861L185 320.389L186 320.694L188 321.306L189 321.611L191 322.139L192 322.389L193 322.694L195 323.306L196 323.611L198 324.139L199 324.361L201 324.778L202 324.917L204 325L205 325L207 325.083L209 325.389L210 325.611L212 325.917L213 325.972L215 326L217 326L220 326L223 326L225 326L227 325.972L228 325.917L230 325.611L231 325.389L233 325.056L234 324.944L236 324.611L237 324.389L238 324.194L240 323.806L241 323.611L242.944 323.222L243.5 323.083L245 323z"/>
<path style="fill:#aadffe; stroke:none;" d="M234.667 117.333L234.667 117.667L235.333 117.667L235 117.333L234.667 117.333z"/>
<path style="fill:#d1eee1; stroke:none;" d="M257.667 117.333L258 117.667L258.333 117.667L258.333 117.333L257.667 117.333z"/>
<path style="fill:#95d8b9; stroke:none;" d="M259.667 117.333L260 117.667L260.333 117.667L260.333 117.333L259.667 117.333z"/>
<path style="fill:#44bb85; stroke:none;" d="M247 120L247.778 120.75L248.306 120.833L250.028 121.389L252 122L253 122.333L255 123L257 123.667L258 124.028L259 124.389L261 125.25L263 126.222L264 126.778L265 127.222L266 127.778L267 128.222L268 128.778L270 129.778L271 130.25L272 130.833L273 131.389L275 132.667L276 133.333L278 134.667L280 136L281 136.694L282 137.417L284 139L286 140.611L287 141.389L289 143.083L290 144.028L291 145L293 147L295 149L295.972 150L296.917 151L298.611 153L299.389 154L300.194 155L301.806 157L302.611 158L303.361 159L304.139 160L304.861 161L305.611 162L306.972 164L307.611 165L308.194 166L309.389 168L310.611 170L311.75 172L312.222 173L313.222 175L313.778 176L314.222 177L315.222 179L315.75 180L316.167 181L316.611 182L317.389 184L318.194 186L318.611 187L318.972 188L319.333 189L320 191L320.306 192L320.611 193L321.139 195L321.361 196L321.778 198L321.917 199L322.083 201L322.389 203L322.639 204L322.861 205L323.139 206L323.361 207L323.611 208L323.917 210L323.972 211L324 212L324 214L324 219L324 224L324 226L323.972 227L323.917 228L323.611 230L323.389 231L323.083 233L323.028 234L322.972 236L322.778 238L322.389 240L322 242L321.583 244L321.306 245L320.694 247L320.389 248L319.861 250L319.611 251L319 253L318.667 254L318 256L317.333 258L316.972 259L316.611 260L315.75 262L315.222 263L314.778 264L314.222 265L313.778 266L313.222 267L312.778 268L311.778 270L311.222 271L310.778 272L309.75 274L309.167 275L308.611 276L307.333 278L306 280L305.306 281L303.861 283L303.139 284L302.361 285L300.778 287L299.917 288L298 290L297.028 291L295.222 292.972L293.611 294.778L292.778 295.611L290.972 297.222L290 298.083L288 300L287 300.972L286 301.917L284 303.611L283 304.361L281 305.861L280 306.611L278 308L277 308.667L275 309.972L274 310.611L272 311.75L271 312.222L270 312.778L269 313.222L268 313.778L266 314.778L265 315.222L264 315.778L263 316.222L262 316.778L261 317.222L260 317.75L258 318.611L257 318.972L256 319.333L255 319.667L253 320.333L252.056 320.639L251.056 321.028L250.5 321.194L249 322L249.778 322.75L250.306 322.833L251.111 323.167L253 323.611L255 323.944L256 324.056L258 324.389L259 324.611L261 324.917L263 325L265 325.028L266 325.083L268 325.389L269 325.611L271 325.917L272 325.972L274 326L275 326L277 326L280 326L281 326L283 325.972L284 325.917L286 325.611L288 325.222L289 325.083L291 324.917L292 324.778L294 324.389L295 324.194L297 323.806L299 323.389L300 323.194L302 322.806L303 322.611L304 322.361L305 322.139L307 321.611L308 321.306L309 321L311 320.333L312 319.972L313 319.611L314 319.194L316 318.389L318 317.611L320 316.75L321 316.222L323 315.222L324 314.778L325 314.222L327 313.222L328 312.75L329 312.167L330 311.611L332 310.333L333 309.667L335 308.333L337 307L338 306.306L339 305.611L341 304.139L342 303.361L343 302.611L345 300.917L347 299L348 298L350 296L352 294L353.972 292L354.917 291L356.611 289L357.389 288L359 286L360.583 284L362 282L362.667 281L364 279L365.333 277L365.972 276L366.611 275L367.167 274L367.75 273L368.222 272L369.222 270L369.778 269L370.222 268L371.222 266L371.75 265L372.611 263L373.389 261L374.194 259L374.611 258L374.972 257L375.333 256L376 254L376.306 253L376.611 252L377.139 250L377.361 249L377.611 248L377.806 247L378.194 245L378.611 243L378.944 241L379.056 240L379.389 238L379.611 237L379.917 235L380.083 233L380.222 232L380.611 230L380.917 228L380.972 227L381 225L381 223L381 219L380.972 217L380.917 216L380.611 214L380.389 213L380.083 211L380.028 210L380 208L379.972 207L379.917 206L379.611 204L379.389 203L379.222 202L378.944 200L378.583 198L378.306 197L377.694 195L377.389 194L376.861 192L376.639 191L376.361 190L376.139 189L375.861 188L375.306 186L374.611 184L373.75 182L373.25 181L372.389 179L371.611 177L371.167 176L370.75 175L370.222 174L369.75 173L369.167 172L368.611 171L367.389 169L366.194 167L365.611 166L364.972 165L363.667 163L362.306 161L361.611 160L360.861 159L360.139 158L358.611 156L357.806 155L356.194 153L354.611 151L352.917 149L351 147L349 145.083L347 143.389L346 142.611L344 140.944L343 140.056L341 138.389L339 136.861L338 136.139L336 134.694L334 133.389L333 132.806L331 131.611L329 130.389L327 129.25L326 128.778L324 127.778L323 127.222L322 126.778L321 126.222L320 125.778L318 124.833L317 124.389L315 123.667L314 123.333L311 122.333L308 121.333L307 121L306 120.694L305 120.389L303 119.861L302 119.639L301 119.389L300 119.194L298 118.806L297 118.611L296 118.389L295 118.194L293 117.806L292 117.611L291 117.389L289 117.083L288 117.028L286 117L284 117L275 117L268 117L266 117L264 117.028L263 117.083L261 117.389L260 117.639L259 117.861L258 118.139L257 118.361L256 118.611L254 118.944L253 119.056L251 119.389L249.056 119.778L248.5 119.917L247 120z"/>
<path style="fill:#a3ddc3; stroke:none;" d="M291.667 117.333L292 117.667L292.333 117.667L292.333 117.333L291.667 117.333z"/>
<path style="fill:#dcf2e8; stroke:none;" d="M293.667 117.333L294 117.667L294.333 117.667L294.333 117.333L293.667 117.333z"/>
<path style="fill:#aee0fe; stroke:none;" d="M196.667 118.333L196.667 118.667L197.333 118.667L197.333 118.333L196.667 118.333z"/>
<path style="fill:#9cd9fe; stroke:none;" d="M239.667 118.333L239.667 118.667L240.333 118.667L240 118.333L239.667 118.333z"/>
<path style="fill:#a7dec5; stroke:none;" d="M253.667 118.333L253.667 118.667L254.333 118.667L254.333 118.333L253.667 118.333z"/>
<path style="fill:#63c699; stroke:none;" d="M255.667 118.333L255.667 118.667L256.333 118.667L256.333 118.333L255.667 118.333z"/>
<path style="fill:#93d7b8; stroke:none;" d="M296.667 118.333L297 118.667L297.333 118.667L297.333 118.333L296.667 118.333z"/>
<path style="fill:#dcf2e8; stroke:none;" d="M298.667 118.333L299 118.667L299.333 118.667L299.333 118.333L298.667 118.333z"/>
<path style="fill:#a0dbfe; stroke:none;" d="M192.667 119.333L192.667 119.667L193.333 119.667L193.333 119.333L192.667 119.333z"/>
<path style="fill:#bae5ff; stroke:none;" d="M244.667 119.333L244.667 119.667L245.333 119.667L245.333 119.333L244.667 119.333z"/>
<path style="fill:#99dabc; stroke:none;" d="M249.667 119.333L249.667 119.667L250.333 119.667L250.333 119.333L249.667 119.333z"/>
<path style="fill:#b2e2cc; stroke:none;" d="M301.667 119.333L302 119.667L302.333 119.667L302.333 119.333L301.667 119.333z"/>
<path style="fill:#80cffe; stroke:none;" d="M189.667 120.333L189.667 120.667L190.333 120.667L190 120.333L189.667 120.333z"/>
<path style="fill:#38b5c7; stroke:none;" d="M245.667 120.333L245.667 120.667L246.333 120.667L246.333 120.333L245.667 120.333z"/>
<path style="fill:#c6eada; stroke:none;" d="M305.667 120.333L305.667 120.667L306.333 120.667L306.333 120.333L305.667 120.333z"/>
<path style="fill:#16aa85; stroke:none;" d="M243 121.417L242 121.694L240 122.389L239 122.806L237 123.611L235 124.389L234 124.833L233 125.25L231 126.222L230 126.778L229 127.222L228 127.778L227 128.222L226 128.778L225 129.25L223 130.389L222 131.028L220 132.333L218 133.667L217 134.333L215 135.694L214 136.389L213 137.139L211 138.639L210 139.389L208 141.083L207 142.028L205 144L204 145L202 147L200 149L199 150L198 151L196.083 153L195.222 154L193.639 156L192.861 157L191.389 159L190.694 160L190 161L188.667 163L187.333 165L186.667 166L186.028 167L185.389 168L184.25 170L183.778 171L183.222 172L182.778 173L182.222 174L181.778 175L181.222 176L180.25 178L179.833 179L179.389 180L178.611 182L177.806 184L177.389 185L177.028 186L176.333 188L176 189L175.417 191L175.194 192L174.806 194L174.611 195L174.139 197L173.861 198L173.389 200L173.194 201L172.806 203L172.611 204L172.389 205L172.083 207L172.028 208L172 210L172 212L172 220L172 229L172 231L172 232L172.028 234L172.083 235L172.389 237L172.611 238L172.944 240L173.056 241L173.417 243L173.694 244L174.306 246L174.611 247L175.139 249L175.389 250L176 252L176.667 254L177.667 257L178.333 259L178.667 260L179.028 261L179.389 262L180.25 264L180.778 265L181.222 266L181.778 267L182.222 268L182.778 269L183.222 270L183.778 271L184.778 273L185.25 274L185.833 275L186.389 276L187.667 278L188.333 279L189.667 281L191 283L191.694 284L192.417 285L194 287L195.611 289L196.389 290L198.083 292L199.028 293L201 295L202 296L203 297L205 298.917L206 299.778L207 300.611L209 302.194L211 303.806L212 304.611L214 306.139L215 306.861L217 308.306L219 309.611L220 310.194L222 311.389L224 312.611L226 313.75L227 314.222L229 315.222L230 315.778L231 316.222L232 316.778L233 317.222L234 317.75L236 318.611L237 318.972L239 319.611L240 319.861L242 320.444L244 321.167L245 321.528L247 321.889L248 321.889L250 321.583L251 321.306L252 321L254 320.333L256 319.667L257 319.333L259 318.611L260 318.167L261 317.75L263 316.778L264 316.222L266 315.222L267 314.778L268 314.222L269 313.778L270 313.222L272 312.222L273 311.75L274 311.167L275 310.611L276 309.972L278 308.667L280 307.306L281 306.611L283 305.139L284 304.361L285 303.611L287 301.917L288 300.972L290 299.028L291.917 297.222L292.778 296.389L293.611 295.611L294.389 294.778L296.083 292.972L297.028 292L298.972 290L299.917 289L301.611 287L302.361 286L303.861 284L304.611 283L306 281L306.667 280L307.972 278L308.611 277L309.75 275L310.222 274L310.778 273L311.222 272L311.778 271L312.222 270L313.222 268L313.778 267L314.222 266L314.778 265L315.222 264L315.75 263L316.611 261L316.972 260L317.333 259L318 257L318.667 255L319 254L319.611 252L319.861 251L320.389 249L320.694 248L321.306 246L321.583 245L321.806 244L322.194 242L322.611 240L322.917 238L323 236L323.083 234L323.389 232L323.611 231L323.917 229L323.972 228L324 227L324 225L324 220L324 213L324 211L323.972 210L323.917 209L323.611 207L323.361 206L323.139 205L322.861 204L322.639 203L322.389 202L322.083 200L321.917 198L321.611 196L321.361 195L320.861 193L320.611 192L320 190L319.333 188L318.611 186L318.194 185L317.389 183L316.611 181L316.167 180L315.75 179L315.222 178L314.222 176L313.778 175L313.222 174L312.222 172L311.75 171L311.167 170L310.611 169L309.389 167L308.194 165L306.972 163L305.611 161L304.861 160L304.139 159L302.611 157L301 155L299.389 153L298.611 152L296.917 150L295.972 149L294 147L292 145L291 144.028L290 143.083L288 141.389L287 140.611L285 139L283 137.417L282 136.694L281 136L279 134.667L277 133.333L276 132.667L274 131.389L273 130.833L272 130.25L271 129.778L269 128.778L268 128.222L267 127.778L266 127.222L265 126.778L264 126.222L263 125.778L262 125.25L260 124.389L259 124.028L258 123.667L257 123.333L255 122.667L253 122L252 121.694L251 121.417L249 121.083L247 121L245 121.083L243 121.417z"/>
<path style="fill:#7fd0ab; stroke:none;" d="M308 121L309 122L308 121z"/>
<path style="fill:#85d2af; stroke:none;" d="M311 122L312 123L311 122z"/>
<path style="fill:#9cdbbe; stroke:none;" d="M314 123L315 124L314 123z"/>
<path style="fill:#b1e2cc; stroke:none;" d="M319 125L320 126L319 125z"/>
<path style="fill:#a1dcc1; stroke:none;" d="M321 126L322 127L321 126z"/>
<path style="fill:#9fdbbf; stroke:none;" d="M323 127L324 128L323 127z"/>
<path style="fill:#a4dec3; stroke:none;" d="M325 128L326 129L325 128z"/>
<path style="fill:#b5e4ce; stroke:none;" d="M327 129L328 130L327 129z"/>
<path style="fill:#a2dcfe; stroke:none;" d="M166 130L167 131L166 130z"/>
<path style="fill:#8ad4b2; stroke:none;" d="M330 131L331 132L330 131z"/>
<path style="fill:#b1e2cc; stroke:none;" d="M332 132L333 133L332 132z"/>
<path style="fill:#b2e2fe; stroke:none;" d="M161 133L162 134L161 133z"/>
<path style="fill:#afe1ca; stroke:none;" d="M335 134L336 135L335 134z"/>
<path style="fill:#c2e8d6; stroke:none;" d="M338 136L339 137L338 136z"/>
<path style="fill:#98d9bb; stroke:none;" d="M339 137L340 138L339 137z"/>
<path style="fill:#b4e3fe; stroke:none;" d="M154 138L155 139L154 138z"/>
<path style="fill:#94d6fe; stroke:none;" d="M153 139L154 140L153 139z"/>
<path style="fill:#b5e3ce; stroke:none;" d="M343 140L344 141L343 140z"/>
<path style="fill:#9bdabd; stroke:none;" d="M344 141L345 142L344 141z"/>
<path style="fill:#85d2af; stroke:none;" d="M345 142L346 143L345 142z"/>
<path style="fill:#b5e3fe; stroke:none;" d="M147 144L148 145L147 144z"/>
<path style="fill:#ade0fe; stroke:none;" d="M146 145L147 146L146 145z"/>
<path style="fill:#aadffe; stroke:none;" d="M145 146L146 147L145 146M144 147L145 148L144 147z"/>
<path style="fill:#afe1fe; stroke:none;" d="M143 148L144 149L143 148z"/>
<path style="fill:#b6e4fe; stroke:none;" d="M142 149L143 150L142 149z"/>
<path style="fill:#8fd5b5; stroke:none;" d="M355 152L356 153L355 152z"/>
<path style="fill:#a9dfc6; stroke:none;" d="M356 153L357 154L356 153z"/>
<path style="fill:#95d7fe; stroke:none;" d="M137 155L138 156L137 155z"/>
<path style="fill:#b5e3fe; stroke:none;" d="M136 156L137 157L136 156z"/>
<path style="fill:#83d1ae; stroke:none;" d="M359 157L360 158L359 157z"/>
<path style="fill:#ade1c9; stroke:none;" d="M360 158L361 159L360 158z"/>
<path style="fill:#91d7b7; stroke:none;" d="M362 161L363 162L362 161z"/>
<path style="fill:#b2e2fe; stroke:none;" d="M131 163L132 164L131 163z"/>
<path style="fill:#91d7b7; stroke:none;" d="M364 164L365 165L364 164z"/>
<path style="fill:#ace1c8; stroke:none;" d="M366 167L367 168L366 167z"/>
<path style="fill:#a2dcfe; stroke:none;" d="M128 168L129 169L128 168z"/>
<path style="fill:#8ed5b5; stroke:none;" d="M367 169L368 170L367 169z"/>
<path style="fill:#2eb291; stroke:none;" d="M212 175L212 260L212.722 259.222L212.75 258.694L212.944 257.889L212.972 256.972L213 256L213 255L213 253L213 240L213 194L213 182L213 180L213 179L212.972 178.028L212.944 177.111L212.75 176.306L212.722 175.778L212 175z"/>
<path style="fill:#a0dccd; stroke:none;" d="M213 175L213.778 175.722L214.306 175.75L215.056 175.944L215.972 175.972L218 176L217.222 175.278L216.694 175.25L215.944 175.056L215.028 175.028L213 175z"/>
<path style="fill:#9bdacb; stroke:none;" d="M283 175L283.778 175.722L284.25 175.75L285.056 175.944L287 176L287 260L287.722 259.222L287.75 258.694L287.944 257.889L287.972 256.972L288 255L288 254L288 252L288 236L288 175L283 175z"/>
<path style="fill:#09a57e; stroke:none;" d="M288 175L288 260L288.722 259.222L288.75 258.694L288.944 257.889L288.972 256.972L289 256L289 255L289 253L289 241L289 195L289 182L289 180L289 179L288.972 178.028L288.944 177.111L288.75 176.306L288.722 175.778L288 175z"/>
<path style="fill:#ffffff; stroke:none;" d="M213 176L213.583 178.056L213.778 179.056L213.917 180L214 182L214 184L214 189L214 205L214 260L217 260L217 182L218.5 182.778L219.056 183.306L220.056 184.111L221 185.028L223 187L225 189L230 194L250 214L251.5 213.222L252.056 212.694L253.056 211.889L254 210.972L256 209L257 208L259 206L274 191L277 188L278 187L280 185.028L280.944 184.111L281.944 183.306L282.5 182.778L284 182L284 256L227 256L227 260L287 260L287 176L285.5 176L283.944 176.111L282 176.722L281 177.333L280 178.111L278 180L277 181L274 184L260 198L257 201L256 202L254.028 204L253.111 204.944L252.306 205.944L251.778 206.5L251 208L249 208L248.222 206.5L247.694 205.944L246.889 204.944L245.972 204L244 202L243 201L240 198L226 184L223 181L222 180L220 178.111L219 177.333L218 176.722L216.056 176.111L214.5 176L213 176z"/>
<path style="fill:#7fd0bc; stroke:none;" d="M218 176L219 177L218 176z"/>
<path style="fill:#eaf7f4; stroke:none;" d="M213 177L213 260L213.722 259.222L213.75 258.694L213.944 257.889L213.972 256.972L214 256L214 255L214 253L214 242L214 197L214 184L214 182L214 181L213.972 180.028L213.944 179.111L213.75 178.306L213.722 177.778L213 177z"/>
<path style="fill:#7fd0bc; stroke:none;" d="M219 177L220 178L219 177M220 178L221 179L220 178M221 179L222 180L221 179z"/>
<path style="fill:#91d6b7; stroke:none;" d="M372 179L373 180L372 179z"/>
<path style="fill:#7fd0bc; stroke:none;" d="M222 180L223 181L222 180z"/>
<path style="fill:#80d0bc; stroke:none;" d="M223 181L224 182L223 181z"/>
<path style="fill:#ade1c9; stroke:none;" d="M373 181L374 182L373 181z"/>
<path style="fill:#6bc8b1; stroke:none;" d="M217 182L217 260L217.722 259.222L217.75 258.694L217.944 257.889L217.972 256.972L218 255L218 254L218 252L218 239L218 203L218 193L218 190L218 189L218 188L218.083 186L218.222 185.056L218.417 184.056L219 182L217 182z"/>
<path style="fill:#80d0bc; stroke:none;" d="M224 182L225 183L224 182z"/>
<path style="fill:#59c2a8; stroke:none;" d="M282 182L283 183L282 182z"/>
<path style="fill:#cdece4; stroke:none;" d="M283 182L283 256L283.722 255.222L283.75 254.694L283.944 253.889L283.972 252.972L284 252L284 251L284 249L284 238L284 199L284 189L284 187L284 186L283.972 185.028L283.944 184.111L283.75 183.306L283.722 182.778L283 182z"/>
<path style="fill:#09a57e; stroke:none;" d="M218 183L218 260L218.722 259.222L218.75 258.694L218.944 257.889L218.972 256.972L219 256L219 255L219 253L219 243L219 201L219 190L219 188L219 187L218.972 186.028L218.944 185.111L218.75 184.306L218.722 183.778L218 183z"/>
<path style="fill:#b0e2d6; stroke:none;" d="M219 183L220 184L219 183z"/>
<path style="fill:#80d0bc; stroke:none;" d="M225 183L226 184L225 183z"/>
<path style="fill:#5fc4ab; stroke:none;" d="M281 183L282 184L281 183z"/>
<path style="fill:#aee1d4; stroke:none;" d="M220 184L221 185L220 184z"/>
<path style="fill:#80d0bc; stroke:none;" d="M226 184L227 185L226 184z"/>
<path style="fill:#5ec4aa; stroke:none;" d="M280 184L281 185L280 184z"/>
<path style="fill:#aee1d4; stroke:none;" d="M221 185L222 186L221 185z"/>
<path style="fill:#80d0bc; stroke:none;" d="M227 185L228 186L227 185z"/>
<path style="fill:#5ec4aa; stroke:none;" d="M279 185L280 186L279 185z"/>
<path style="fill:#aee1d4; stroke:none;" d="M222 186L223 187L222 186z"/>
<path style="fill:#80d0bc; stroke:none;" d="M228 186L229 187L228 186z"/>
<path style="fill:#5dc4aa; stroke:none;" d="M278 186L279 187L278 186z"/>
<path style="fill:#c0e8d6; stroke:none;" d="M375 186L376 187L375 186z"/>
<path style="fill:#ade1d4; stroke:none;" d="M223 187L224 188L223 187z"/>
<path style="fill:#80d0bc; stroke:none;" d="M229 187L230 188L229 187z"/>
<path style="fill:#5dc4aa; stroke:none;" d="M277 187L278 188L277 187z"/>
<path style="fill:#ade1d4; stroke:none;" d="M224 188L225 189L224 188z"/>
<path style="fill:#80d0bc; stroke:none;" d="M230 188L231 189L230 188z"/>
<path style="fill:#5dc4aa; stroke:none;" d="M276 188L277 189L276 188z"/>
<path style="fill:#ade1d4; stroke:none;" d="M225 189L226 190L225 189z"/>
<path style="fill:#80d0bc; stroke:none;" d="M231 189L232 190L231 189z"/>
<path style="fill:#5dc4aa; stroke:none;" d="M275 189L276 190L275 189z"/>
<path style="fill:#86d2af; stroke:none;" d="M376.333 189.667L376.333 190.333L376.667 190.333L376.667 189.667L376.333 189.667z"/>
<path style="fill:#ade1d4; stroke:none;" d="M226 190L227 191L226 190z"/>
<path style="fill:#80d0bc; stroke:none;" d="M232 190L233 191L232 190z"/>
<path style="fill:#5dc4aa; stroke:none;" d="M274 190L275 191L274 190z"/>
<path style="fill:#81d0fe; stroke:none;" d="M118.333 191.667L118.333 192L118.667 192.333L118.667 191.667L118.333 191.667z"/>
<path style="fill:#ade1d4; stroke:none;" d="M227 191L228 192L227 191z"/>
<path style="fill:#80d0bc; stroke:none;" d="M233 191L234 192L233 191z"/>
<path style="fill:#5dc4aa; stroke:none;" d="M273 191L274 192L273 191z"/>
<path style="fill:#ade1d4; stroke:none;" d="M228 192L229 193L228 192z"/>
<path style="fill:#81d0bc; stroke:none;" d="M234 192L235 193L234 192z"/>
<path style="fill:#5dc3aa; stroke:none;" d="M272 192L273 193L272 192z"/>
<path style="fill:#ade0d4; stroke:none;" d="M229 193L230 194L229 193z"/>
<path style="fill:#81d0bc; stroke:none;" d="M235 193L236 194L235 193z"/>
<path style="fill:#5dc3aa; stroke:none;" d="M271 193L272 194L271 193z"/>
<path style="fill:#6fcaa0; stroke:none;" d="M377.333 193.667L377.333 194.333L377.667 194.333L377.667 193.667L377.333 193.667z"/>
<path style="fill:#a1dbfe; stroke:none;" d="M117.333 194.667L117.333 195L117.667 195.333L117.667 194.667L117.333 194.667z"/>
<path style="fill:#32b2bb; stroke:none;" d="M174.333 194.667L174.333 195.333L174.667 195.333L174.667 195L174.333 194.667z"/>
<path style="fill:#ade0d4; stroke:none;" d="M230 194L231 195L230 194z"/>
<path style="fill:#81d0bc; stroke:none;" d="M236 194L237 195L236 194z"/>
<path style="fill:#5dc3aa; stroke:none;" d="M270 194L271 195L270 194z"/>
<path style="fill:#ade0d4; stroke:none;" d="M231 195L232 196L231 195z"/>
<path style="fill:#81d0bc; stroke:none;" d="M237 195L238 196L237 195z"/>
<path style="fill:#5dc3aa; stroke:none;" d="M269 195L270 196L269 195z"/>
<path style="fill:#ade0d4; stroke:none;" d="M232 196L233 197L232 196z"/>
<path style="fill:#81d0bc; stroke:none;" d="M238 196L239 197L238 196z"/>
<path style="fill:#5dc3aa; stroke:none;" d="M268 196L269 197L268 196z"/>
<path style="fill:#9ddbbe; stroke:none;" d="M378.333 196.667L378.333 197L378.667 197.333L378.667 197L378.333 196.667z"/>
<path style="fill:#ade0d4; stroke:none;" d="M233 197L234 198L233 197z"/>
<path style="fill:#81d0bc; stroke:none;" d="M239 197L240 198L239 197z"/>
<path style="fill:#5dc3aa; stroke:none;" d="M267 197L268 198L267 197z"/>
<path style="fill:#aee0fe; stroke:none;" d="M116.333 198.667L116.333 199L116.667 199.333L116.667 198.667L116.333 198.667z"/>
<path style="fill:#36b4c4; stroke:none;" d="M173.333 198.667L173.333 199.333L173.667 199.333L173.667 199L173.333 198.667z"/>
<path style="fill:#ade0d4; stroke:none;" d="M234 198L235 199L234 198z"/>
<path style="fill:#81d0bc; stroke:none;" d="M240 198L241 199L240 198z"/>
<path style="fill:#5cc3aa; stroke:none;" d="M266 198L267 199L266 198z"/>
<path style="fill:#ade0d4; stroke:none;" d="M235 199L236 200L235 199z"/>
<path style="fill:#81d0bc; stroke:none;" d="M241 199L242 200L241 199z"/>
<path style="fill:#5cc3aa; stroke:none;" d="M265 199L266 200L265 199z"/>
<path style="fill:#ade0d4; stroke:none;" d="M236 200L237 201L236 200z"/>
<path style="fill:#81d0bc; stroke:none;" d="M242 200L243 201L242 200z"/>
<path style="fill:#5cc3aa; stroke:none;" d="M264 200L265 201L264 200z"/>
<path style="fill:#bbe6d2; stroke:none;" d="M379.333 200.667L379.333 201.333L379.667 201.333L379.667 200.667L379.333 200.667z"/>
<path style="fill:#ade0d4; stroke:none;" d="M237 201L238 202L237 201z"/>
<path style="fill:#81d0bc; stroke:none;" d="M243 201L244 202L243 201z"/>
<path style="fill:#5cc3aa; stroke:none;" d="M263 201L264 202L263 201z"/>
<path style="fill:#d3eefe; stroke:none;" d="M115 202L115 205L115.694 204.25L115.694 203.806L115.694 202.75L115 202z"/>
<path style="fill:#ade0d4; stroke:none;" d="M238 202L239 203L238 202z"/>
<path style="fill:#81d0bc; stroke:none;" d="M244 202L245 203L244 202z"/>
<path style="fill:#5cc3aa; stroke:none;" d="M262 202L263 203L262 202z"/>
<path style="fill:#76cda5; stroke:none;" d="M379.333 202.667L379.333 203.333L379.667 203.333L379.667 202.667L379.333 202.667z"/>
<path style="fill:#ace0d4; stroke:none;" d="M239 203L240 204L239 203z"/>
<path style="fill:#81d0bd; stroke:none;" d="M245 203L246 204L245 203z"/>
<path style="fill:#5cc3a9; stroke:none;" d="M261 203L262 204L261 203z"/>
<path style="fill:#ace0d3; stroke:none;" d="M240 204L241 205L240 204z"/>
<path style="fill:#81d0bd; stroke:none;" d="M246 204L247 205L246 204z"/>
<path style="fill:#5cc3a9; stroke:none;" d="M260 204L261 205L260 204z"/>
<path style="fill:#ace0d3; stroke:none;" d="M241 205L242 206L241 205z"/>
<path style="fill:#81d0bd; stroke:none;" d="M247 205L248 206L247 205z"/>
<path style="fill:#5cc3a9; stroke:none;" d="M259 205L260 206L259 205z"/>
<path style="fill:#d4efe3; stroke:none;" d="M380 205L380 208L380.694 207.25L380.694 206.806L380.694 205.75L380 205z"/>
<path style="fill:#ace0d3; stroke:none;" d="M242 206L243 207L242 206z"/>
<path style="fill:#81d0bd; stroke:none;" d="M248 206L249 207L248 206z"/>
<path style="fill:#5cc3a9; stroke:none;" d="M258 206L259 207L258 206z"/>
<path style="fill:#ace0d3; stroke:none;" d="M243 207L244 208L243 207z"/>
<path style="fill:#7ecfbb; stroke:none;" d="M249 207L250 208L249 207z"/>
<path style="fill:#5cc3a9; stroke:none;" d="M257 207L258 208L257 207z"/>
<path style="fill:#ace0d3; stroke:none;" d="M244 208L245 209L244 208z"/>
<path style="fill:#5cc3a9; stroke:none;" d="M256 208L257 209L256 208z"/>
<path style="fill:#8fd6b6; stroke:none;" d="M380.333 208.667L380.333 209.333L380.667 209.333L380.667 208.667L380.333 208.667z"/>
<path style="fill:#ace0d3; stroke:none;" d="M245 209L246 210L245 209z"/>
<path style="fill:#5cc3a9; stroke:none;" d="M255 209L256 210L255 209z"/>
<path style="fill:#ace0d3; stroke:none;" d="M246 210L247 211L246 210z"/>
<path style="fill:#5cc3a9; stroke:none;" d="M254 210L255 211L254 210z"/>
<path style="fill:#5ac393; stroke:none;" d="M380 210L380 214L380.722 213.222L380.722 212.722L380.889 212L380.722 210.778L380 210z"/>
<path style="fill:#a2dcfe; stroke:none;" d="M114 211L114 216L114.722 215.222L114.75 214.694L114.917 213.083L114.75 212.306L114.722 211.778L114 211z"/>
<path style="fill:#32b3bc; stroke:none;" d="M171 211L171 215L171.722 214.222L171.722 213.722L171.889 213L171.722 211.778L171 211z"/>
<path style="fill:#ace0d3; stroke:none;" d="M247 211L248 212L247 211z"/>
<path style="fill:#5cc3a9; stroke:none;" d="M253 211L254 212L253 211z"/>
<path style="fill:#ace0d3; stroke:none;" d="M248 212L249 213L248 212z"/>
<path style="fill:#5cc3a9; stroke:none;" d="M252 212L253 213L252 212z"/>
<path style="fill:#ade1d4; stroke:none;" d="M249 213L250 214L249 213z"/>
<path style="fill:#5ac2a8; stroke:none;" d="M251 213L252 214L251 213z"/>
<path style="fill:#d3eee2; stroke:none;" d="M381 213L381 227L381.722 226.222L381.75 225.694L381.944 224.889L381.972 223.972L382 223L382 222L382 220L382 218L382 217L381.972 216.028L381.944 215.111L381.75 214.306L381.722 213.778L381 213z"/>
<path style="fill:#25aea3; stroke:none;" d="M171 215L171 230L171.722 229.222L171.75 228.694L171.944 227.889L171.972 226.972L172 225L172 224L172 222L172 220L172 219L171.972 218.028L171.944 217.111L171.75 216.306L171.722 215.778L171 215z"/>
<path style="fill:#7dcefe; stroke:none;" d="M114 216L114 227L114.722 226.222L114.75 225.694L114.944 224.889L114.972 223.972L115 223L115 221L114.972 219.028L114.944 218.111L114.75 217.306L114.722 216.778L114 216z"/>
<path style="fill:#a7defe; stroke:none;" d="M114 227L114 230L114.694 229.25L114.694 228.194L114.694 227.75L114 227z"/>
<path style="fill:#75cca4; stroke:none;" d="M380 230L380 233L380.694 232.25L380.694 231.806L380.694 230.75L380 230z"/>
<path style="fill:#b2e3cd; stroke:none;" d="M380.333 233.667L380.333 234.333L380.667 234.333L380.667 233.667L380.333 233.667z"/>
<path style="fill:#7acdfe; stroke:none;" d="M115 234L115 237L115.694 236.25L115.694 235.806L115.694 234.75L115 234z"/>
<path style="fill:#ddf2e8; stroke:none;" d="M380.333 235.667L380.333 236.333L380.667 236.333L380.667 235.667L380.333 235.667z"/>
<path style="fill:#c7eafe; stroke:none;" d="M115.333 237.667L115.333 238L115.667 238.333L115.667 237.667L115.333 237.667z"/>
<path style="fill:#6ac99e; stroke:none;" d="M379 237L379 240L379.694 239.25L379.694 238.806L379.694 237.75L379 237z"/>
<path style="fill:#7accfe; stroke:none;" d="M116 240L116 243L116.694 242.25L116.694 241.806L116.694 240.75L116 240z"/>
<path style="fill:#caebdc; stroke:none;" d="M379 240L379 243L379.694 242.25L379.694 241.806L379.694 240.75L379 240z"/>
<path style="fill:#87d3b0; stroke:none;" d="M378.333 243.667L378.333 244.333L378.667 244.333L378.667 243.667L378.333 243.667z"/>
<path style="fill:#daf1e6; stroke:none;" d="M378.333 245.667L378.333 246.333L378.667 246.333L378.667 245.667L378.333 245.667z"/>
<path style="fill:#b7e4fe; stroke:none;" d="M117.333 246.667L117.333 247.333L117.667 247.333L117.667 246.667L117.333 246.667z"/>
<path style="fill:#39b5cb; stroke:none;" d="M174.333 246.667L174.333 247L174.667 247.333L174.667 246.667L174.333 246.667z"/>
<path style="fill:#bae5d2; stroke:none;" d="M377.333 248.667L377.333 249L377.667 249.333L377.667 248.667L377.333 248.667z"/>
<path style="fill:#caebfe; stroke:none;" d="M118.333 250.667L118.333 251L118.667 251.333L118.667 251L118.333 250.667z"/>
<path style="fill:#40b7d8; stroke:none;" d="M175.333 250.667L175.333 251L175.667 251.333L175.667 250.667L175.333 250.667z"/>
<path style="fill:#d8f1e5; stroke:none;" d="M376.333 252.667L376.333 253L376.667 253.333L376.667 252.667L376.333 252.667z"/>
<path style="fill:#c3e8fe; stroke:none;" d="M119.333 253.667L119.333 254.333L119.667 254.333L119.667 254L119.333 253.667z"/>
<path style="fill:#3db7d3; stroke:none;" d="M176.333 253.667L176.333 254L176.667 254.333L176.667 254L176.333 253.667z"/>
<path style="fill:#41ba9b; stroke:none;" d="M227 255L227.778 255.722L228.306 255.75L229.111 255.944L230.028 255.972L231 256L232 256L234 256L244 256L283 256L282.222 255.278L281.694 255.25L280.889 255.056L279.972 255.028L279 255L278 255L276 255L266 255L227 255z"/>
<path style="fill:#dbf2e7; stroke:none;" d="M375.333 255.667L375.333 256.333L375.667 256.333L375.667 255.667L375.333 255.667z"/>
<path style="fill:#c9ebfe; stroke:none;" d="M120.333 256.667L120.333 257L120.667 257.333L120.667 256.667L120.333 256.667z"/>
<path style="fill:#40b6d8; stroke:none;" d="M177.333 256.667L177.333 257L177.667 257.333L177.667 257L177.333 256.667z"/>
<path style="fill:#56c1a6; stroke:none;" d="M226 256L226 260L226.722 259.222L226.889 258L226.722 257.278L226.722 256.778L226 256z"/>
<path style="fill:#b1e2cc; stroke:none;" d="M374 258L375 259L374 258z"/>
<path style="fill:#43ba9c; stroke:none;" d="M213 260L213.778 260.722L214.306 260.75L215.056 260.944L215.972 260.972L218 261L217.222 260.278L216.694 260.25L215.944 260.056L215.028 260.028L213 260z"/>
<path style="fill:#4bbda0; stroke:none;" d="M227 260L227.778 260.722L228.306 260.75L229.111 260.944L230.028 260.972L231 261L232 261L234 261L245 261L288 261L287.222 260.278L286.694 260.25L285.889 260.056L284.972 260.028L284 260L283 260L281 260L270 260L227 260z"/>
<path style="fill:#8ad4b2; stroke:none;" d="M373 260L374 261L373 260z"/>
<path style="fill:#b8e5d0; stroke:none;" d="M372 263L373 264L372 263z"/>
<path style="fill:#a7dec5; stroke:none;" d="M371 265L372 266L371 265z"/>
<path style="fill:#a9defe; stroke:none;" d="M124 266L125 267L124 266z"/>
<path style="fill:#9fdbc0; stroke:none;" d="M370 267L371 268L370 267z"/>
<path style="fill:#a5ddfe; stroke:none;" d="M125 268L126 269L125 268z"/>
<path style="fill:#a2ddc2; stroke:none;" d="M369 269L370 270L369 269z"/>
<path style="fill:#abdffe; stroke:none;" d="M126 270L127 271L126 270z"/>
<path style="fill:#ace0c8; stroke:none;" d="M368 271L369 272L368 271z"/>
<path style="fill:#b9e4fe; stroke:none;" d="M127 272L128 273L127 272z"/>
<path style="fill:#c1e8d6; stroke:none;" d="M367 273L368 274L367 273z"/>
<path style="fill:#9bdabd; stroke:none;" d="M365 276L366 277L365 276z"/>
<path style="fill:#b5e3fe; stroke:none;" d="M130 277L131 278L130 277z"/>
<path style="fill:#8ed5b5; stroke:none;" d="M363 279L364 280L363 279z"/>
<path style="fill:#b1e2fe; stroke:none;" d="M132 280L133 281L132 280z"/>
<path style="fill:#9cdabe; stroke:none;" d="M361 282L362 283L361 282z"/>
<path style="fill:#9ddafe; stroke:none;" d="M135 284L136 285L135 284z"/>
<path style="fill:#c4e9d8; stroke:none;" d="M359 285L360 286L359 285z"/>
<path style="fill:#9fdcc0; stroke:none;" d="M358 286L359 287L358 286z"/>
<path style="fill:#80d0ac; stroke:none;" d="M357 287L358 288L357 287z"/>
<path style="fill:#b9e4fe; stroke:none;" d="M138 288L139 289L138 288z"/>
<path style="fill:#a0dbfe; stroke:none;" d="M139 289L140 290L139 289z"/>
<path style="fill:#b8e4d0; stroke:none;" d="M353 292L354 293L353 292z"/>
<path style="fill:#afe1ca; stroke:none;" d="M352 293L353 294L352 293z"/>
<path style="fill:#a8dfc6; stroke:none;" d="M351 294L352 295L351 294z"/>
<path style="fill:#a3ddc3; stroke:none;" d="M350 295L351 296L350 295z"/>
<path style="fill:#a6dec4; stroke:none;" d="M349 296L350 297L349 296z"/>
<path style="fill:#ace0c8; stroke:none;" d="M348 297L349 298L348 297z"/>
<path style="fill:#b6e4cf; stroke:none;" d="M347 298L348 299L347 298z"/>
<path style="fill:#c3e9d7; stroke:none;" d="M346 299L347 300L346 299z"/>
<path style="fill:#ade0fe; stroke:none;" d="M151 301L152 302L151 301z"/>
<path style="fill:#9edbbf; stroke:none;" d="M341 303L342 304L341 303z"/>
<path style="fill:#c4e9d7; stroke:none;" d="M340 304L341 305L340 304z"/>
<path style="fill:#b1e1fe; stroke:none;" d="M156 305L157 306L156 305z"/>
<path style="fill:#9cdabe; stroke:none;" d="M337 306L338 307L337 306z"/>
<path style="fill:#9bd9fe; stroke:none;" d="M159 307L160 308L159 307z"/>
<path style="fill:#8ed6b5; stroke:none;" d="M334 308L335 309L334 308z"/>
<path style="fill:#99d8fe; stroke:none;" d="M162 309L163 310L162 309z"/>
<path style="fill:#9ddbbf; stroke:none;" d="M331 310L332 311L331 310z"/>
<path style="fill:#b2e2fe; stroke:none;" d="M165 311L166 312L165 311z"/>
<path style="fill:#bfe7d5; stroke:none;" d="M328 312L329 313L328 312z"/>
<path style="fill:#ace0c8; stroke:none;" d="M326 313L327 314L326 313z"/>
<path style="fill:#a0dcc1; stroke:none;" d="M324 314L325 315L324 314z"/>
<path style="fill:#a0dcc0; stroke:none;" d="M322 315L323 316L322 315z"/>
<path style="fill:#a9dfc6; stroke:none;" d="M320 316L321 317L320 316z"/>
<path style="fill:#b9e5d1; stroke:none;" d="M318 317L319 318L318 317z"/>
<path style="fill:#89d3b2; stroke:none;" d="M315 318L316 319L315 318z"/>
<path style="fill:#b1e2cc; stroke:none;" d="M313 319L314 320L313 319z"/>
<path style="fill:#8bd3fe; stroke:none;" d="M184.667 320.333L185 320.667L185.333 320.667L185.333 320.333L184.667 320.333z"/>
<path style="fill:#2ab0ad; stroke:none;" d="M241.667 320.333L242 320.667L242.333 320.667L242 320.333L241.667 320.333z"/>
<path style="fill:#dbf2e7; stroke:none;" d="M310.667 320.333L311 320.667L311.333 320.667L311 320.333L310.667 320.333z"/>
<path style="fill:#8fd5fe; stroke:none;" d="M187.667 321.333L188 321.667L188.333 321.667L188 321.333L187.667 321.333z"/>
<path style="fill:#d7f0e5; stroke:none;" d="M307.667 321.333L308 321.667L308.333 321.667L308 321.333L307.667 321.333z"/>
<path style="fill:#7bcdfe; stroke:none;" d="M191.667 322.333L192 322.667L192.333 322.667L192 322.333L191.667 322.333z"/>
<path style="fill:#8cd3f7; stroke:none;" d="M245.667 322.333L246 322.667L246.333 322.667L246 322.333L245.667 322.333z"/>
<path style="fill:#99dabf; stroke:none;" d="M247.667 322.333L248 322.667L248.333 322.667L248 322.333L247.667 322.333z"/>
<path style="fill:#b9e5d1; stroke:none;" d="M303.667 322.333L304 322.667L304.333 322.667L304.333 322.333L303.667 322.333z"/>
<path style="fill:#a3dcfe; stroke:none;" d="M194.667 323.333L195 323.667L195.333 323.667L195 323.333L194.667 323.333z"/>
<path style="fill:#8fd5fe; stroke:none;" d="M241.667 323.333L242 323.667L242.333 323.667L242.333 323.333L241.667 323.333z"/>
<path style="fill:#9bdabd; stroke:none;" d="M251.667 323.333L252 323.667L252.333 323.667L252 323.333L251.667 323.333z"/>
<path style="fill:#85d2af; stroke:none;" d="M298.667 323.333L299 323.667L299.333 323.667L299.333 323.333L298.667 323.333z"/>
<path style="fill:#d9f1e6; stroke:none;" d="M300.667 323.333L300.667 323.667L301.333 323.667L301 323.333L300.667 323.333z"/>
<path style="fill:#bde6fe; stroke:none;" d="M198.667 324.333L199 324.667L199.333 324.667L199 324.333L198.667 324.333z"/>
<path style="fill:#8fd4fe; stroke:none;" d="M236 324L236.722 324.722L237.25 324.75L239 325L238.278 324.278L237.75 324.25L236 324z"/>
<path style="fill:#b8e5d0; stroke:none;" d="M255.667 324.333L256 324.667L256.333 324.667L256 324.333L255.667 324.333z"/>
<path style="fill:#76cda5; stroke:none;" d="M257.667 324.333L258 324.667L258.333 324.667L258 324.333L257.667 324.333z"/>
<path style="fill:#86d2af; stroke:none;" d="M293 324L293.722 324.722L294.25 324.75L296 325L295.278 324.278L294.75 324.25L293 324z"/>
<path style="fill:#d7f0fe; stroke:none;" d="M203 325L203.722 325.722L204.25 325.75L206 326L205.278 325.278L204.75 325.25L203 325z"/>
<path style="fill:#79ccfe; stroke:none;" d="M206 325L206.778 325.722L207.25 325.75L208.056 325.944L210 326L209.222 325.278L208.75 325.25L207.944 325.056L206 325z"/>
<path style="fill:#a3dcfe; stroke:none;" d="M230 325L230.722 325.722L231.25 325.75L233 326L232.278 325.278L231.75 325.25L230 325z"/>
<path style="fill:#d4efe3; stroke:none;" d="M260 325L260.722 325.722L261.25 325.75L263 326L262.278 325.278L261.75 325.25L260 325z"/>
<path style="fill:#91d7b7; stroke:none;" d="M263.667 325.333L264 325.667L264.333 325.667L264 325.333L263.667 325.333z"/>
<path style="fill:#5ac393; stroke:none;" d="M265 325L265.778 325.722L266.25 325.75L267.056 325.944L269 326L268.222 325.278L267.75 325.25L266.944 325.056L265 325z"/>
<path style="fill:#88d3b1; stroke:none;" d="M286 325L286.722 325.722L287.25 325.75L289 326L288.278 325.278L287.75 325.25L286 325z"/>
<path style="fill:#caecdc; stroke:none;" d="M289.667 325.333L290 325.667L290.333 325.667L290 325.333L289.667 325.333z"/>
<path style="fill:#d7f0fe; stroke:none;" d="M211 326L211.778 326.722L212.306 326.75L213.111 326.944L214.028 326.972L215 327L217 327L218 327L220 327L226 327L225.222 326.278L224.694 326.25L223.889 326.056L222.972 326.028L222 326L220 326L219 326L217 326L211 326z"/>
<path style="fill:#d4eee2; stroke:none;" d="M268 326L268.778 326.722L269.306 326.75L270.111 326.944L271.028 326.972L272 327L274 327L275 327L277 327L283 327L282.222 326.278L281.694 326.25L280.889 326.056L279.972 326.028L279 326L277 326L276 326L274 326L268 326z"/>
<path style="fill:#cbcbcb; stroke:none;" d="M155.667 347.333L156 347.667L156.333 347.667L156.333 347.333L155.667 347.333z"/>
<path style="fill:#d0d0d0; stroke:none;" d="M178 347L179 348L178 347z"/>
<path style="fill:#9e9e9e; stroke:none;" d="M179 347L180 348L179 347z"/>
<path style="fill:#818181; stroke:none;" d="M279 347L280 348L279 347z"/>
<path style="fill:#cfcfcf; stroke:none;" d="M280 347L281 348L280 347z"/>
<path style="fill:#b9b9b9; stroke:none;" d="M301 347L302 348L301 347z"/>
<path style="fill:#5f5f5f; stroke:none;" d="M302 347L302.778 347.722L303.306 347.75L304.111 347.944L304.972 347.972L305.944 348L308 348L307.222 347.278L306.694 347.25L305.889 347.056L305.028 347.028L304.056 347L302 347z"/>
<path style="fill:#838383; stroke:none;" d="M308.333 347.667L308.333 348L308.667 348.333L308.667 347.667L308.333 347.667z"/>
<path style="fill:#c5c5c5; stroke:none;" d="M319 347L319 372L319.722 371.222L319.75 370.694L319.944 369.889L319.972 368.972L320 368L320 367L320 365L320 354L320 352L320 351L319.972 350.028L319.944 349.111L319.75 348.306L319.722 347.778L319 347z"/>
<path style="fill:#989898; stroke:none;" d="M320 347L321 348L320 347z"/>
<path style="fill:#909090; stroke:none;" d="M343 347L344 348L343 347z"/>
<path style="fill:#dfdfdf; stroke:none;" d="M344 347L344 372L344.722 371.222L344.75 370.694L344.944 369.889L344.972 368.972L345 368L345 367L345 365L345 354L345 352L345 351L344.972 350.028L344.944 349.111L344.75 348.306L344.722 347.778L344 347z"/>
<path style="fill:#757575; stroke:none;" d="M155 348L155 372L155.722 371.222L155.75 370.694L155.944 369.889L155.972 368.972L156 368L156 367L156 365L156 355L156 353L156 352L155.972 351.028L155.944 350.111L155.75 349.306L155.722 348.778L155 348z"/>
<path style="fill:#363636; stroke:none;" d="M156.333 348.667L156.333 349L156.667 349.333L156.667 348.667L156.333 348.667M178.333 348.667L178.333 349L178.667 349.333L178.667 349L178.333 348.667z"/>
<path style="fill:#717171; stroke:none;" d="M179 348L179 372L179.722 371.222L179.75 370.694L179.944 369.889L179.972 368.972L180 368L180 367L180 365L180 355L180 353L180 352L179.972 351.028L179.944 350.111L179.75 349.306L179.722 348.778L179 348z"/>
<path style="fill:#161616; stroke:none;" d="M279 348L280 349L279 348z"/>
<path style="fill:#666666; stroke:none;" d="M280.333 348.667L280.333 349.333L280.667 349.333L280.667 349L280.333 348.667z"/>
<path style="fill:#afafaf; stroke:none;" d="M299 348L300 349L299 348z"/>
<path style="fill:#717171; stroke:none;" d="M300.667 348.333L301 348.667L301.333 348.667L301 348.333L300.667 348.333z"/>
<path style="fill:#e5e5e5; stroke:none;" d="M302 348L302.778 348.722L303.306 348.75L304.111 348.944L304.972 348.972L305.944 349L308 349L307.222 348.278L306.694 348.25L305.889 348.056L305.028 348.028L304.056 348L302 348z"/>
<path style="fill:#6b6b6b; stroke:none;" d="M309 348L309 349L311 350L311 348L309 348z"/>
<path style="fill:#030303; stroke:none;" d="M320 348L321 349L320 348z"/>
<path style="fill:#cdcdcd; stroke:none;" d="M321 348L322 349L321 348z"/>
<path style="fill:#a5a5a5; stroke:none;" d="M342 348L343 349L342 348z"/>
<path style="fill:#0f0f0f; stroke:none;" d="M343 348L344 349L343 348z"/>
<path style="fill:#a5a5a5; stroke:none;" d="M157 349L158 350L157 349z"/>
<path style="fill:#acacac; stroke:none;" d="M177 349L178 350L177 349z"/>
<path style="fill:#4f4f4f; stroke:none;" d="M278.333 349.667L278.333 350.333L278.667 350.333L278.667 350L278.333 349.667z"/>
<path style="fill:#aaaaaa; stroke:none;" d="M279 349L280 350L279 349z"/>
<path style="fill:#686868; stroke:none;" d="M298.667 349.333L299 349.667L299.333 349.667L299.333 349.333L298.667 349.333z"/>
<path style="fill:#3d3d3d; stroke:none;" d="M311 349L312 350L311 349z"/>
<path style="fill:#616161; stroke:none;" d="M320.667 349.333L321 349.667L321.333 349.667L321 349.333L320.667 349.333z"/>
<path style="fill:#5f5f5f; stroke:none;" d="M342 349L342.583 351.056L342.778 352.056L342.917 353L343 355L343 356L343 357L343 360L343 372L343.722 371.222L343.75 370.694L343.944 369.889L343.972 368.972L344 368L344 367L344 365L344 358L344 356L344 355L344 353L343.972 352.028L343.722 350.333L343.333 349.722L343.139 349.361L342 349z"/>
<path style="fill:#bababa; stroke:none;" d="M156 350L156 372L156.722 371.222L156.75 370.694L156.944 369.889L156.972 368.972L157 368L157 366L157 364L157 360L157 358L157.028 356L157.083 355L157.278 353.028L157.333 352.111L157.111 351.306L157.056 350.778L156 350z"/>
<path style="fill:#5d5d5d; stroke:none;" d="M157 350L158 351L157 350z"/>
<path style="fill:#5c5c5c; stroke:none;" d="M177 350L178 351L177 350z"/>
<path style="fill:#c0c0c0; stroke:none;" d="M178 350L177.528 351.5L177.639 352.056L177.667 353.056L177.917 355L178 357L178 359L178 362L178 372L178.722 371.222L178.75 370.694L178.944 369.889L178.972 368.972L179 368L179 367L179 365L179 359L179 357L179 356L179 354L178.972 353.028L178.944 352.111L178.75 351.306L178.722 350.778L178 350z"/>
<path style="fill:#fefefe; stroke:none;" d="M279 350L278.556 351.5L278.333 352.056L277.611 354L277.167 355L276.75 356L275.778 358L275.25 358.944L274.833 359.944L274.5 360.5L274 362L285 362L284.722 360.5L284.139 358.944L283.75 358L283.25 357L282.389 355L282 354L281.139 352.111L280.222 350.778L279 350z"/>
<path style="fill:#828282; stroke:none;" d="M280.667 350.333L280.667 350.667L281.333 350.667L281 350.333L280.667 350.333z"/>
<path style="fill:#565656; stroke:none;" d="M297 350L298 351L297 350z"/>
<path style="fill:#969696; stroke:none;" d="M298 350L299 351L298 350z"/>
<path style="fill:#c8c8c8; stroke:none;" d="M311 350L312 351L311 350z"/>
<path style="fill:#393939; stroke:none;" d="M312 350L313 351L312 350z"/>
<path style="fill:#8a8a8a; stroke:none;" d="M320 350L320.722 350.722L321.25 350.75L323 351L322.278 350.278L321.75 350.25L320 350z"/>
<path style="fill:#585858; stroke:none;" d="M341.333 350.667L341.333 351.333L341.667 351.333L341.667 351L341.333 350.667z"/>
<path style="fill:#a8a8a8; stroke:none;" d="M342 350L343 351L342 350z"/>
<path style="fill:#5b5b5b; stroke:none;" d="M158.333 351.667L158.333 352.333L158.667 352.333L158.667 352L158.333 351.667z"/>
<path style="fill:#575757; stroke:none;" d="M176.333 351.667L176.333 352L176.667 352.333L176.667 352L176.333 351.667z"/>
<path style="fill:#8e8e8e; stroke:none;" d="M277.667 351.333L278 351.667L278.333 351.667L278 351.333L277.667 351.333z"/>
<path style="fill:#515151; stroke:none;" d="M281 351L282 352L281 351z"/>
<path style="fill:#737373; stroke:none;" d="M295 354L296.389 353.278L296.75 352.75L298 351L296.611 351.361L295.667 352.278L295.361 352.611L295 354z"/>
<path style="fill:#bbbbbb; stroke:none;" d="M312 351L313 352L312 351z"/>
<path style="fill:#464646; stroke:none;" d="M313 351L314 352L313 351z"/>
<path style="fill:#6e6e6e; stroke:none;" d="M320 351L320 372L320.722 371.222L320.75 370.694L320.944 369.889L320.972 368.972L321 368L321 366L321 365L321 362L321 359L321 357L321 355L320.972 354.028L320.944 353.111L320.75 352.306L320.722 351.778L320 351z"/>
<path style="fill:#4c4c4c; stroke:none;" d="M322 351L323 352L322 351z"/>
<path style="fill:#c9c9c9; stroke:none;" d="M340 351L341 352L340 351z"/>
<path style="fill:#c1c1c1; stroke:none;" d="M159 352L160 353L159 352z"/>
<path style="fill:#c9c9c9; stroke:none;" d="M175 352L175 353L177 354L176 352L175 352z"/>
<path style="fill:#767676; stroke:none;" d="M277.333 352.667L277.333 353.333L277.667 353.333L277.667 352.667L277.333 352.667z"/>
<path style="fill:#9d9d9d; stroke:none;" d="M281.667 352.333L282 352.667L282.333 352.667L282 352.333L281.667 352.333z"/>
<path style="fill:#898989; stroke:none;" d="M313 352L314 353L313 352z"/>
<path style="fill:#c1c1c1; stroke:none;" d="M314 352L315 353L314 352z"/>
<path style="fill:#a6a6a6; stroke:none;" d="M322 352L323 353L322 352z"/>
<path style="fill:#5d5d5d; stroke:none;" d="M323.333 352.667L323.333 353.333L323.667 353.333L323.667 352.667L323.333 352.667z"/>
<path style="fill:#777777; stroke:none;" d="M340 352L339.278 353.444L339.25 354L339 356L339.972 355.222L340.111 354.722L340.5 354L340.639 352.778L340 352z"/>
<path style="fill:#cacaca; stroke:none;" d="M341 352L342 353L341 352z"/>
<path style="fill:#d0d0d0; stroke:none;" d="M158 353L159 354L158 353z"/>
<path style="fill:#7e7e7e; stroke:none;" d="M159 353L159 355L161 355L161 354L159 353z"/>
<path style="fill:#777777; stroke:none;" d="M175 353L174.278 354.444L174.25 355L174 357L174.972 356.222L175.111 355.722L175.5 355L175.639 353.778L175 353z"/>
<path style="fill:#b6b6b6; stroke:none;" d="M190 353L190.778 353.722L191.25 353.75L192.056 353.944L194 354L193.222 353.278L192.75 353.25L191.944 353.056L190 353M208 353L208.778 353.722L209.25 353.75L210.056 353.944L212 354L211.222 353.278L210.75 353.25L209.944 353.056L208 353z"/>
<path style="fill:#b9b9b9; stroke:none;" d="M226 353L226.778 353.722L227.25 353.75L228.056 353.944L230 354L229.222 353.278L228.75 353.25L227.944 353.056L226 353z"/>
<path style="fill:#bbbbbb; stroke:none;" d="M248 353L248.778 353.722L249.25 353.75L250.056 353.944L252 354L251.222 353.278L250.75 353.25L249.944 353.056L248 353z"/>
<path style="fill:#a7a7a7; stroke:none;" d="M276 353L277 354L276 353z"/>
<path style="fill:#656565; stroke:none;" d="M282.333 353.667L282.333 354.333L282.667 354.333L282.667 353.667L282.333 353.667z"/>
<path style="fill:#c2c2c2; stroke:none;" d="M324 353L325 354L324 353z"/>
<path style="fill:#969696; stroke:none;" d="M188.333 354.667L188.333 355L188.667 355.333L188.667 354.667L188.333 354.667z"/>
<path style="fill:#777777; stroke:none;" d="M189 354L189.778 354.722L190.306 354.75L191.111 354.972L193 355.306L194.944 356L195.944 356.389L196.5 356.667L198 357L197.222 355.611L195.889 354.667L194 354.111L193 354.028L192.056 354L191.056 354L189 354z"/>
<path style="fill:#5f5f5f; stroke:none;" d="M206.667 354.333L207 354.667L207.333 354.667L207 354.333L206.667 354.333z"/>
<path style="fill:#7a7a7a; stroke:none;" d="M208 354L208.778 354.722L209.306 354.75L210.111 354.944L210.972 354.972L211.944 355L214 355L213.222 354.278L212.694 354.25L211.889 354.056L211.028 354.028L210.056 354L208 354z"/>
<path style="fill:#d3d3d3; stroke:none;" d="M214 354L215 355L214 354z"/>
<path style="fill:#a8a8a8; stroke:none;" d="M224 354L225 355L224 354z"/>
<path style="fill:#616161; stroke:none;" d="M225.667 354.333L226 354.667L226.333 354.667L226 354.333L225.667 354.333z"/>
<path style="fill:#727272; stroke:none;" d="M227 354L227.778 354.722L228.306 354.75L229.056 354.944L229.972 354.972L232 355L231.222 354.278L230.694 354.25L229.944 354.056L229.028 354.028L227 354z"/>
<path style="fill:#818181; stroke:none;" d="M241 354L241 372L241.722 371.222L241.75 370.694L241.944 369.889L242 368L242 366L242.028 365L242.194 363L242.389 361L242.389 360L242.194 358L242.056 357.028L241.75 355.306L241.722 354.778L241 354z"/>
<path style="fill:#a9a9a9; stroke:none;" d="M242 354L242 358L242.722 357.222L242.722 356.722L242.889 356L242.722 354.778L242 354z"/>
<path style="fill:#9b9b9b; stroke:none;" d="M246 354L247 355L246 354z"/>
<path style="fill:#5d5d5d; stroke:none;" d="M247.667 354.333L248 354.667L248.333 354.667L248 354.333L247.667 354.333z"/>
<path style="fill:#797979; stroke:none;" d="M249 354L249.722 354.722L250.25 354.75L252 355L251.278 354.278L250.75 354.25L249 354z"/>
<path style="fill:#4e4e4e; stroke:none;" d="M252 354L253 355L252 354z"/>
<path style="fill:#bababa; stroke:none;" d="M253 354L254 355L253 354z"/>
<path style="fill:#646464; stroke:none;" d="M276.333 354.667L276.333 355.333L276.667 355.333L276.667 354.667L276.333 354.667z"/>
<path style="fill:#d1d1d1; stroke:none;" d="M277 354L278 355L277 354z"/>
<path style="fill:#b9b9b9; stroke:none;" d="M283 354L284 355L283 354z"/>
<path style="fill:#8f8f8f; stroke:none;" d="M294.667 354.333L295 354.667L295.333 354.667L295 354.333L294.667 354.333z"/>
<path style="fill:#d2d2d2; stroke:none;" d="M323 354L324 355L323 354z"/>
<path style="fill:#7d7d7d; stroke:none;" d="M324 354L324 356L326 356L325 354L324 354z"/>
<path style="fill:#4e4e4e; stroke:none;" d="M160 355L161 356L160 355z"/>
<path style="fill:#868686; stroke:none;" d="M186.333 355.667L186.333 356L186.667 356.333L186.667 356L186.333 355.667z"/>
<path style="fill:#4d4d4d; stroke:none;" d="M187 355L188 356L187 355z"/>
<path style="fill:#d0d0d0; stroke:none;" d="M204 355L205 356L204 355z"/>
<path style="fill:#525252; stroke:none;" d="M205 355L206 356L205 355z"/>
<path style="fill:#b7b7b7; stroke:none;" d="M206 355L207 356L206 355z"/>
<path style="fill:#b5b5b5; stroke:none;" d="M213 355L214 356L213 355z"/>
<path style="fill:#474747; stroke:none;" d="M214 355L215 356L214 355z"/>
<path style="fill:#929292; stroke:none;" d="M215.333 355.667L215.333 356.333L215.667 356.333L215.667 356L215.333 355.667z"/>
<path style="fill:#686868; stroke:none;" d="M223.667 355.333L224 355.667L224.333 355.667L224 355.333L223.667 355.333z"/>
<path style="fill:#ffffff; stroke:none;" d="M225.028 355.722L223.25 357.111L222.5 358.028L221.5 360L221.25 361L221.083 362L221.028 364L221.083 365L221.5 366.972L222.5 368.75L223.25 369.5L225.028 370.5L227 370.917L229 370.972L231 370.667L231.972 370.278L233.694 368.889L234.361 367.972L234.889 367L235.556 365L235.694 363L235.556 362L234.972 360L234.583 359.028L234.083 358.083L232.75 356.5L230.972 355.5L229 355.083L228 355.056L226 355.333L225.028 355.722z"/>
<path style="fill:#a1a1a1; stroke:none;" d="M231 355L232 356L231 355z"/>
<path style="fill:#424242; stroke:none;" d="M232 355L233 356L232 355z"/>
<path style="fill:#aeaeae; stroke:none;" d="M233 355L234 356L233 355z"/>
<path style="fill:#6d6d6d; stroke:none;" d="M245.667 355.333L246 355.667L246.333 355.667L246 355.333L245.667 355.333z"/>
<path style="fill:#434343; stroke:none;" d="M253 355L254 356L253 355z"/>
<path style="fill:#bfbfbf; stroke:none;" d="M254 355L255 356L254 355z"/>
<path style="fill:#c2c2c2; stroke:none;" d="M275 355L276 356L275 355z"/>
<path style="fill:#bcbcbc; stroke:none;" d="M282 355L283 356L282 355z"/>
<path style="fill:#545454; stroke:none;" d="M283.333 355.667L283.333 356.333L283.667 356.333L283.667 355.667L283.333 355.667z"/>
<path style="fill:#606060; stroke:none;" d="M294 355L294 358L294.694 357.25L294.694 356.194L294.694 355.75L294 355z"/>
<path style="fill:#5a5a5a; stroke:none;" d="M338.333 355.667L338.333 356.333L338.667 356.333L338.667 355.667L338.333 355.667z"/>
<path style="fill:#a8a8a8; stroke:none;" d="M160 356L161 357L160 356z"/>
<path style="fill:#5d5d5d; stroke:none;" d="M161.333 356.667L161.333 357L161.667 357.333L161.667 356.667L161.333 356.667z"/>
<path style="fill:#5a5a5a; stroke:none;" d="M173.333 356.667L173.333 357L173.667 357.333L173.667 357L173.333 356.667z"/>
<path style="fill:#8c8c8c; stroke:none;" d="M204 356L203.278 357.444L203.25 358L203 360L204.139 359.639L204.333 359.278L204.833 358L204.722 357.278L204.722 356.778L204 356z"/>
<path style="fill:#4d4d4d; stroke:none;" d="M222 356L223 357L222 356z"/>
<path style="fill:#9b9b9b; stroke:none;" d="M223 356L224 357L223 356z"/>
<path style="fill:#494949; stroke:none;" d="M233 356L234 357L233 356z"/>
<path style="fill:#a9a9a9; stroke:none;" d="M234 356L235 357L234 356z"/>
<path style="fill:#303030; stroke:none;" d="M244 356L245 357L244 356z"/>
<path style="fill:#b8b8b8; stroke:none;" d="M245 356L246 357L245 356z"/>
<path style="fill:#696969; stroke:none;" d="M254.333 356.667L254.333 357L254.667 357.333L254.667 357L254.333 356.667z"/>
<path style="fill:#575757; stroke:none;" d="M275.333 356.667L275.333 357.333L275.667 357.333L275.667 356.667L275.333 356.667z"/>
<path style="fill:#b7b7b7; stroke:none;" d="M276 356L277 357L276 356z"/>
<path style="fill:#d4d4d4; stroke:none;" d="M284 356L285 357L284 356z"/>
<path style="fill:#8c8c8c; stroke:none;" d="M293 356L293 362L295 362L294.972 360.5L294.75 358.972L294.556 358.111L294.139 357.306L293.972 356.778L293 356z"/>
<path style="fill:#4e4e4e; stroke:none;" d="M325 356L326 357L325 356z"/>
<path style="fill:#cacaca; stroke:none;" d="M337 356L338 357L337 356z"/>
<path style="fill:#c2c2c2; stroke:none;" d="M162 357L163 358L162 357z"/>
<path style="fill:#cbcbcb; stroke:none;" d="M172 357L173 358L172 357z"/>
<path style="fill:#4c4c4c; stroke:none;" d="M197 357L198 358L197 357z"/>
<path style="fill:#5a5a5a; stroke:none;" d="M221 357L220.583 358.444L220.25 359.556L220 361L220.972 360.222L221.111 359.722L221.5 359L221.639 357.778L221 357z"/>
<path style="fill:#929292; stroke:none;" d="M222 357L223 358L222 357z"/>
<path style="fill:#4b4b4b; stroke:none;" d="M234 357L235 358L234 357z"/>
<path style="fill:#d2d2d2; stroke:none;" d="M235 357L236 358L235 357z"/>
<path style="fill:#454545; stroke:none;" d="M243 357L244 358L243 357z"/>
<path style="fill:#c7c7c7; stroke:none;" d="M244 357L245 358L244 357z"/>
<path style="fill:#c0c0c0; stroke:none;" d="M255 357L256 358L255 357z"/>
<path style="fill:#787878; stroke:none;" d="M283 357L283.528 358.389L283.861 358.722L284.778 359.639L286 360L285.472 358.611L285.139 358.278L284.222 357.361L283 357z"/>
<path style="fill:#a7a7a7; stroke:none;" d="M325 357L326 358L325 357z"/>
<path style="fill:#5d5d5d; stroke:none;" d="M326.333 357.667L326.333 358.333L326.667 358.333L326.667 357.667L326.333 357.667z"/>
<path style="fill:#777777; stroke:none;" d="M337 357L336.278 358.444L336.25 359L336 361L336.972 360.222L337.111 359.722L337.5 359L337.639 357.778L337 357z"/>
<path style="fill:#cbcbcb; stroke:none;" d="M338 357L339 358L338 357z"/>
<path style="fill:#d2d2d2; stroke:none;" d="M161 358L162 359L161 358z"/>
<path style="fill:#7d7d7d; stroke:none;" d="M162 358L162 360L164 360L164 359L162 358z"/>
<path style="fill:#767676; stroke:none;" d="M172 358L171.278 359.444L171.25 360L171 362L171.972 361.222L172.111 360.722L172.5 360L172.639 358.778L172 358z"/>
<path style="fill:#cacaca; stroke:none;" d="M173 358L174 359L173 358z"/>
<path style="fill:#8b8b8b; stroke:none;" d="M197.667 358.333L198 358.667L198.333 358.667L198 358.333L197.667 358.333z"/>
<path style="fill:#b8b8b8; stroke:none;" d="M220 358L221 359L220 358z"/>
<path style="fill:#c8c8c8; stroke:none;" d="M234 358L235 359L234 358z"/>
<path style="fill:#6a6a6a; stroke:none;" d="M235.333 358.667L235.333 359L235.667 359.333L235.667 359L235.333 358.667z"/>
<path style="fill:#2e2e2e; stroke:none;" d="M242.333 358.667L242.333 359L242.667 359.333L242.667 359L242.333 358.667z"/>
<path style="fill:#a7a7a7; stroke:none;" d="M243 358L244 359L243 358z"/>
<path style="fill:#8d8d8d; stroke:none;" d="M254.667 358.333L255 358.667L255.333 358.667L255.333 358.333L254.667 358.333z"/>
<path style="fill:#9c9c9c; stroke:none;" d="M274.667 358.333L275 358.667L275.333 358.667L275 358.333L274.667 358.333z"/>
<path style="fill:#c3c3c3; stroke:none;" d="M327 358L328 359L327 358z"/>
<path style="fill:#cfcfcf; stroke:none;" d="M197 359L197 362L197.694 361.25L197.694 360.194L197.694 359.75L197 359z"/>
<path style="fill:#636363; stroke:none;" d="M198 359L197.917 360.5L197.806 361.056L197.611 363L197.583 364L197.611 366L197.583 368L197.611 368.944L197.778 370.5L198 372L198.722 371.222L198.75 370.694L198.944 369.889L198.972 368.972L199 368L199 367L199 365L199 363L198.972 362.028L198.944 361.111L198.75 360.306L198.722 359.778L198 359z"/>
<path style="fill:#c8c8c8; stroke:none;" d="M221 359L222 360L221 359z"/>
<path style="fill:#bbbbbb; stroke:none;" d="M236 359L237 360L236 359z"/>
<path style="fill:#d6d6d6; stroke:none;" d="M254 359L254 372L254.722 371.222L254.75 370.694L254.944 369.889L254.972 368.972L255 368L255 367L255 365L255 363L254.972 362.028L254.944 361.111L254.75 360.306L254.722 359.778L254 359z"/>
<path style="fill:#636363; stroke:none;" d="M255 359L255 372L255.722 371.222L255.75 370.694L255.944 369.889L255.972 368.972L256 368L256 367L256 365L256 363L255.972 362.028L255.944 361.111L255.75 360.306L255.722 359.778L255 359z"/>
<path style="fill:#545454; stroke:none;" d="M274 359L275 360L274 359z"/>
<path style="fill:#d1d1d1; stroke:none;" d="M326 359L327 360L326 359z"/>
<path style="fill:#7d7d7d; stroke:none;" d="M327 359L327 361L329 361L328 359L327 359z"/>
<path style="fill:#4e4e4e; stroke:none;" d="M163 360L164 361L163 360z"/>
<path style="fill:#cecece; stroke:none;" d="M203 360L204 361L203 360z"/>
<path style="fill:#444444; stroke:none;" d="M204 360L204 361L206 362L205 360L204 360z"/>
<path style="fill:#8e8e8e; stroke:none;" d="M219 360L219 365L221 365L220.972 363.5L220.722 362.056L220.333 361.306L220.139 360.778L219 360z"/>
<path style="fill:#e2e2e2; stroke:none;" d="M235.333 360.667L235.333 361L235.667 361.333L235.667 361L235.333 360.667z"/>
<path style="fill:#5f5f5f; stroke:none;" d="M236 360L236 366L236.722 365.222L236.75 364.694L236.944 363.889L236.944 362.111L236.75 361.306L236.722 360.778L236 360z"/>
<path style="fill:#7f7f7f; stroke:none;" d="M273 360L273 362L275 361L275 360L273 360z"/>
<path style="fill:#5f5f5f; stroke:none;" d="M285 360L285 363L285.694 362.25L285.694 361.194L285.694 360.75L285 360z"/>
<path style="fill:#5a5a5a; stroke:none;" d="M335.333 360.667L335.333 361.333L335.667 361.333L335.667 360.667L335.333 360.667z"/>
<path style="fill:#a7a7a7; stroke:none;" d="M163 361L164 362L163 361z"/>
<path style="fill:#5d5d5d; stroke:none;" d="M164.333 361.667L164.333 362L164.667 362.333L164.667 362L164.333 361.667z"/>
<path style="fill:#5a5a5a; stroke:none;" d="M170.333 361.667L170.333 362L170.667 362.333L170.667 362L170.333 361.667z"/>
<path style="fill:#c0c0c0; stroke:none;" d="M190 361L190.778 361.722L191.306 361.75L192.056 361.944L192.972 361.972L195 362L194.222 361.278L193.694 361.25L192.944 361.056L192.028 361.028L190 361z"/>
<path style="fill:#989898; stroke:none;" d="M204 361L205 362L204 361z"/>
<path style="fill:#a5a5a5; stroke:none;" d="M206 361L207 362L206 361z"/>
<path style="fill:#afafaf; stroke:none;" d="M242 361L242 372L242.722 371.222L242.75 370.694L242.944 369.889L242.972 368.972L243 368L243 366L242.972 364.028L242.944 363.111L242.75 362.306L242.722 361.778L242 361z"/>
<path style="fill:#b2b2b2; stroke:none;" d="M286 361L287 362L286 361z"/>
<path style="fill:#4e4e4e; stroke:none;" d="M328 361L329 362L328 361z"/>
<path style="fill:#cbcbcb; stroke:none;" d="M334 361L335 362L334 361z"/>
<path style="fill:#c3c3c3; stroke:none;" d="M165 362L166 363L165 362z"/>
<path style="fill:#cccccc; stroke:none;" d="M169 362L170 363L169 362z"/>
<path style="fill:#727272; stroke:none;" d="M186 363L186.778 363.639L187.306 363.528L188.111 363.556L189.028 363.361L191 363.083L192 363.028L194 363L194.944 363L198 363L197.222 362.278L196.694 362.25L195.889 362.056L194.972 362.028L193 362L191 362L190 362.028L189.056 362.056L188.056 362.25L187.5 362.278L186 363z"/>
<path style="fill:#5c5c5c; stroke:none;" d="M206 362L206.778 362.722L207.25 362.75L208.056 362.944L210 363L209.222 362.278L208.75 362.25L207.944 362.056L206 362z"/>
<path style="fill:#b4b4b4; stroke:none;" d="M210 362L211 363L210 362z"/>
<path style="fill:#e7e7e7; stroke:none;" d="M237.333 362.667L237.333 363L237.667 363.333L237.667 363L237.333 362.667z"/>
<path style="fill:#bcbcbc; stroke:none;" d="M272 362L273 363L272 362z"/>
<path style="fill:#2b2b2b; stroke:none;" d="M273 362L274 363L273 362z"/>
<path style="fill:#959595; stroke:none;" d="M274 362L274 364L286 364L285.222 362.861L284.694 362.667L283.889 362.278L282 362.028L280 362L278 362L274 362z"/>
<path style="fill:#464646; stroke:none;" d="M286.333 362.667L286.333 363.333L286.667 363.333L286.667 362.667L286.333 362.667z"/>
<path style="fill:#c7c7c7; stroke:none;" d="M293 362L294 363L293 362z"/>
<path style="fill:#5e5e5e; stroke:none;" d="M294 362L294 365L294.694 364.25L294.694 363.194L294.694 362.75L294 362z"/>
<path style="fill:#a7a7a7; stroke:none;" d="M328 362L329 363L328 362z"/>
<path style="fill:#5c5c5c; stroke:none;" d="M329.333 362.667L329.333 363.333L329.667 363.333L329.667 363L329.333 362.667z"/>
<path style="fill:#767676; stroke:none;" d="M334.333 362.667L334.333 363.333L334.667 363.333L334.667 363L334.333 362.667z"/>
<path style="fill:#cacaca; stroke:none;" d="M335 362L336 363L335 362z"/>
<path style="fill:#d1d1d1; stroke:none;" d="M164 363L165 364L164 363z"/>
<path style="fill:#7d7d7d; stroke:none;" d="M165 363L165.667 364.75L165.861 365.278L167 366L166.333 364.25L166.139 363.722L165 363z"/>
<path style="fill:#767676; stroke:none;" d="M169 363L168 364L168 366L169.111 365.25L169.472 364.194L169.611 363.75L169 363z"/>
<path style="fill:#c9c9c9; stroke:none;" d="M170 363L171 364L170 363z"/>
<path style="fill:#ffffff; stroke:none;" d="M186 370L187 371L190.056 371L191 371L192 370.972L193 370.889L193.972 370.667L195.667 369.667L196.667 367.972L196.889 367.056L197 365.5L197 364L196 363L192.944 363L192 363L191 363.028L190 363.111L189.028 363.333L187.333 364.333L186.333 366.028L186.111 366.944L186 368.5L186 370z"/>
<path style="fill:#c7c7c7; stroke:none;" d="M196 363L197 364L196 363z"/>
<path style="fill:#ababab; stroke:none;" d="M209 363L210 364L209 363z"/>
<path style="fill:#5f5f5f; stroke:none;" d="M210 363L210.722 363.722L211.25 363.75L213 364L212.278 363.278L211.75 363.25L210 363z"/>
<path style="fill:#838383; stroke:none;" d="M213.333 363.667L213.333 364L213.667 364.333L213.667 364L213.333 363.667z"/>
<path style="fill:#565656; stroke:none;" d="M272 363L272 365L274 364L274 363L272 363z"/>
<path style="fill:#cfcfcf; stroke:none;" d="M287 363L288 364L287 363z"/>
<path style="fill:#c4c4c4; stroke:none;" d="M330 363L331 364L330 363z"/>
<path style="fill:#a1a1a1; stroke:none;" d="M333 363L334 364L333 363z"/>
<path style="fill:#515151; stroke:none;" d="M185 364L186 365L185 364z"/>
<path style="fill:#b0b0b0; stroke:none;" d="M186 364L187 365L186 364z"/>
<path style="fill:#d6d6d6; stroke:none;" d="M197 364L197 368L197.722 367.222L197.722 366.722L197.889 366L197.722 364.778L197 364z"/>
<path style="fill:#d4d4d4; stroke:none;" d="M212 364L213 365L212 364z"/>
<path style="fill:#404040; stroke:none;" d="M214 364L215 365L214 364z"/>
<path style="fill:#c5c5c5; stroke:none;" d="M215 364L216 365L215 364z"/>
<path style="fill:#d1d1d1; stroke:none;" d="M271 364L272 365L271 364z"/>
<path style="fill:#a9a9a9; stroke:none;" d="M286 364L287 365L286 364z"/>
<path style="fill:#4e4e4e; stroke:none;" d="M287.333 364.667L287.333 365.333L287.667 365.333L287.667 364.667L287.333 364.667z"/>
<path style="fill:#adadad; stroke:none;" d="M295 364L296 365L295 364z"/>
<path style="fill:#d1d1d1; stroke:none;" d="M329 364L330 365L329 364z"/>
<path style="fill:#898989; stroke:none;" d="M330 364L330.361 365.139L331.278 365.722L332.528 365.972L334 366L333.222 365.194L332.75 365.028L331.472 364.444L330 364z"/>
<path style="fill:#4f4f4f; stroke:none;" d="M333 364L334 365L333 364z"/>
<path style="fill:#6e6e6e; stroke:none;" d="M184 365L184 368L184.972 367.278L185.167 366.75L186 365L184 365z"/>
<path style="fill:#d0d0d0; stroke:none;" d="M214 365L215 366L214 365z"/>
<path style="fill:#3a3a3a; stroke:none;" d="M215 365L216 366L215 365z"/>
<path style="fill:#c2c2c2; stroke:none;" d="M219 365L220 366L219 365z"/>
<path style="fill:#585858; stroke:none;" d="M220.333 365.667L220.333 366L220.667 366.333L220.667 366L220.333 365.667z"/>
<path style="fill:#cccccc; stroke:none;" d="M235 365L236 366L235 365z"/>
<path style="fill:#505050; stroke:none;" d="M271.333 365.667L271.333 366.333L271.667 366.333L271.667 366L271.333 365.667z"/>
<path style="fill:#a4a4a4; stroke:none;" d="M272 365L273 366L272 365z"/>
<path style="fill:#d3d3d3; stroke:none;" d="M294 365L295 366L294 365z"/>
<path style="fill:#727272; stroke:none;" d="M295.333 365.667L295.333 366.333L295.667 366.333L295.667 366L295.333 365.667z"/>
<path style="fill:#b6b6b6; stroke:none;" d="M166 366L167 367L166 366z"/>
<path style="fill:#121212; stroke:none;" d="M167 366L168 367L167 366z"/>
<path style="fill:#aeaeae; stroke:none;" d="M168 366L169 367L168 366z"/>
<path style="fill:#c6c6c6; stroke:none;" d="M185.333 366.667L185.333 367L185.667 367.333L185.667 367L185.333 366.667z"/>
<path style="fill:#949494; stroke:none;" d="M215 366L215 369L217 369L217 366L215 366z"/>
<path style="fill:#969696; stroke:none;" d="M235.667 366.333L235.667 366.667L236.333 366.667L236.333 366.333L235.667 366.333z"/>
<path style="fill:#737373; stroke:none;" d="M287 366L287 367L288 369L288.722 368.278L288.75 367.75L289 366L287 366z"/>
<path style="fill:#a2a2a2; stroke:none;" d="M296 366L297 367L296 366z"/>
<path style="fill:#b1b1b1; stroke:none;" d="M314 366L315 367L314 366z"/>
<path style="fill:#575757; stroke:none;" d="M331.667 366.333L331.667 366.667L332.333 366.667L332 366.333L331.667 366.333z"/>
<path style="fill:#bfbfbf; stroke:none;" d="M167 367L168 368L167 367z"/>
<path style="fill:#8f8f8f; stroke:none;" d="M220.667 367.333L221 367.667L221.333 367.667L221 367.333L220.667 367.333z"/>
<path style="fill:#4a4a4a; stroke:none;" d="M235 367L236 368L235 367z"/>
<path style="fill:#888888; stroke:none;" d="M270.667 367.333L271 367.667L271.333 367.667L271 367.333L270.667 367.333z"/>
<path style="fill:#474747; stroke:none;" d="M296 367L297 368L296 367z"/>
<path style="fill:#989898; stroke:none;" d="M313 367L314 368L313 367z"/>
<path style="fill:#646464; stroke:none;" d="M314 367L315 368L314 367z"/>
<path style="fill:#dfdfdf; stroke:none;" d="M331.667 367.333L331.667 367.667L332.333 367.667L332 367.333L331.667 367.333z"/>
<path style="fill:#989898; stroke:none;" d="M184.667 368.333L185 368.667L185.333 368.667L185 368.333L184.667 368.333z"/>
<path style="fill:#4d4d4d; stroke:none;" d="M221 368L222 369L221 368z"/>
<path style="fill:#5a5a5a; stroke:none;" d="M234 368L232 370L232 371L233.389 370.639L233.694 370.306L234.278 369.778L234.611 368.75L234 368z"/>
<path style="fill:#969696; stroke:none;" d="M235 368L236 369L235 368z"/>
<path style="fill:#707070; stroke:none;" d="M270.333 368.667L270.333 369.333L270.667 369.333L270.667 368.667L270.333 368.667z"/>
<path style="fill:#a5a5a5; stroke:none;" d="M289 368L290 369L289 368z"/>
<path style="fill:#c8c8c8; stroke:none;" d="M296 368L297 369L296 368z"/>
<path style="fill:#424242; stroke:none;" d="M297 368L298 369L297 368z"/>
<path style="fill:#bababa; stroke:none;" d="M312 368L313 369L312 368z"/>
<path style="fill:#414141; stroke:none;" d="M313 368L314 369L313 368z"/>
<path style="fill:#484848; stroke:none;" d="M185 369L186 370L185 369z"/>
<path style="fill:#a7a7a7; stroke:none;" d="M196 369L197 370L196 369z"/>
<path style="fill:#333333; stroke:none;" d="M197 369L198 370L197 369z"/>
<path style="fill:#8a8a8a; stroke:none;" d="M203.333 369.667L203.333 370L203.667 370.333L203.667 370L203.333 369.667z"/>
<path style="fill:#555555; stroke:none;" d="M215 369L216 370L215 369z"/>
<path style="fill:#c8c8c8; stroke:none;" d="M221 369L222 370L221 369z"/>
<path style="fill:#484848; stroke:none;" d="M222 369L223 370L222 369z"/>
<path style="fill:#a9a9a9; stroke:none;" d="M269 369L270 370L269 369z"/>
<path style="fill:#cfcfcf; stroke:none;" d="M288 369L289 370L288 369z"/>
<path style="fill:#616161; stroke:none;" d="M289.333 369.667L289.333 370.333L289.667 370.333L289.667 369.667L289.333 369.667z"/>
<path style="fill:#bcbcbc; stroke:none;" d="M297 369L298 370L297 369z"/>
<path style="fill:#404040; stroke:none;" d="M298 369L299 370L298 369z"/>
<path style="fill:#c5c5c5; stroke:none;" d="M299 369L300 370L299 369z"/>
<path style="fill:#9f9f9f; stroke:none;" d="M311 369L312 370L311 369z"/>
<path style="fill:#434343; stroke:none;" d="M312 369L313 370L312 369z"/>
<path style="fill:#9d9d9d; stroke:none;" d="M185 370L186 371L185 370z"/>
<path style="fill:#545454; stroke:none;" d="M186 370L187 371L186 370z"/>
<path style="fill:#6d6d6d; stroke:none;" d="M195.667 370.333L196 370.667L196.333 370.667L196.333 370.333L195.667 370.333z"/>
<path style="fill:#cecece; stroke:none;" d="M197 370L198 371L197 370z"/>
<path style="fill:#424242; stroke:none;" d="M204 370L205 371L204 370z"/>
<path style="fill:#c3c3c3; stroke:none;" d="M205 370L204 372L205.083 371L205.417 370.667L205 370z"/>
<path style="fill:#575757; stroke:none;" d="M214 370L215 371L214 370z"/>
<path style="fill:#a8a8a8; stroke:none;" d="M215 370L216 371L215 370z"/>
<path style="fill:#b6b6b6; stroke:none;" d="M222 370L223 371L222 370z"/>
<path style="fill:#454545; stroke:none;" d="M223 370L224 371L223 370z"/>
<path style="fill:#bbbbbb; stroke:none;" d="M224 370L225 371L224 370z"/>
<path style="fill:#5b5b5b; stroke:none;" d="M269.333 370.667L269.333 371.333L269.667 371.333L269.667 370.667L269.333 370.667z"/>
<path style="fill:#cbcbcb; stroke:none;" d="M270 370L271 371L270 370z"/>
<path style="fill:#c4c4c4; stroke:none;" d="M290 370L291 371L290 370z"/>
<path style="fill:#5f5f5f; stroke:none;" d="M299 370L299.778 371.139L300.25 371.333L301.528 371.889L303 372L302.222 371.028L301.75 370.861L300.472 370.278L299 370z"/>
<path style="fill:#c1c1c1; stroke:none;" d="M309 370L310 371L309 370z"/>
<path style="fill:#676767; stroke:none;" d="M310.667 370.333L311 370.667L311.333 370.667L311 370.333L310.667 370.333z"/>
<path style="fill:#a2a2a2; stroke:none;" d="M186 371L187 372L186 371z"/>
<path style="fill:#4b4b4b; stroke:none;" d="M187 371L188 372L187 371z"/>
<path style="fill:#999999; stroke:none;" d="M188.333 371.667L188.333 372L188.667 372.333L188.667 372L188.333 371.667z"/>
<path style="fill:#c5c5c5; stroke:none;" d="M189 371L189.722 371.722L190.25 371.75L192 372L191.278 371.278L190.75 371.25L189 371z"/>
<path style="fill:#8f8f8f; stroke:none;" d="M192.333 371.667L192.333 372L192.667 372.333L192.667 371.667L192.333 371.667z"/>
<path style="fill:#595959; stroke:none;" d="M193.667 371.333L194 371.667L194.333 371.667L194 371.333L193.667 371.333z"/>
<path style="fill:#a3a3a3; stroke:none;" d="M195 371L196 372L195 371z"/>
<path style="fill:#5b5b5b; stroke:none;" d="M205.667 371.333L206 371.667L206.333 371.667L206 371.333L205.667 371.333z"/>
<path style="fill:#909090; stroke:none;" d="M207.333 371.667L207.333 372L207.667 372.333L207.667 371.667L207.333 371.667z"/>
<path style="fill:#c5c5c5; stroke:none;" d="M208 371L208.778 371.722L209.25 371.75L210.056 371.944L212 372L211.222 371.278L210.75 371.25L209.944 371.056L208 371z"/>
<path style="fill:#515151; stroke:none;" d="M212.667 371.333L213 371.667L213.333 371.667L213 371.333L212.667 371.333z"/>
<path style="fill:#b3b3b3; stroke:none;" d="M214 371L215 372L214 371z"/>
<path style="fill:#626262; stroke:none;" d="M224.667 371.333L225 371.667L225.333 371.667L225.333 371.333L224.667 371.333z"/>
<path style="fill:#8b8b8b; stroke:none;" d="M226.333 371.667L226.333 372L226.667 372.333L226.667 372L226.333 371.667z"/>
<path style="fill:#c5c5c5; stroke:none;" d="M227 371L227.722 371.722L228.25 371.75L230 372L229.278 371.278L228.75 371.25L227 371z"/>
<path style="fill:#777777; stroke:none;" d="M230 371L231 372L230 371z"/>
<path style="fill:#464646; stroke:none;" d="M231 371L232 372L231 371z"/>
<path style="fill:#929292; stroke:none;" d="M232 371L233 372L232 371z"/>
<path style="fill:#e1e1e1; stroke:none;" d="M268 371L268 373L270 373L269 371L268 371z"/>
<path style="fill:#b6b6b6; stroke:none;" d="M289 371L290 372L289 371z"/>
<path style="fill:#606060; stroke:none;" d="M290 371L291 372L290 371z"/>
<path style="fill:#aeaeae; stroke:none;" d="M302 372L302.778 372.639L303.25 372.528L304.056 372.528L306 372L305.222 371.306L304.75 371.306L303.472 371.306L302 372z"/>
<path style="fill:#808080; stroke:none;" d="M304 372L304.778 372.722L305.25 372.75L306.056 372.944L308 373L307.222 371.944L306.75 371.889L305.944 371.694L304 372z"/>
<path style="fill:#5c5c5c; stroke:none;" d="M307 371L307.722 371.722L308.25 371.75L310 372L309.278 371.278L308.75 371.25L307 371z"/>
<path style="fill:#bfbfbf; stroke:none;" d="M310 371L311 372L310 371z"/>
<path style="fill:#6e6e6e; stroke:none;" d="M189 372L189.722 372.722L190.25 372.75L192 373L191.278 372.278L190.75 372.25L189 372z"/>
<path style="fill:#c3c3c3; stroke:none;" d="M193 372L194 373L193 372z"/>
<path style="fill:#c9c9c9; stroke:none;" d="M206 372L207 373L206 372z"/>
<path style="fill:#6f6f6f; stroke:none;" d="M208 372L208.778 372.722L209.25 372.75L210.056 372.944L212 373L211.222 372.278L210.75 372.25L209.944 372.056L208 372z"/>
<path style="fill:#b5b5b5; stroke:none;" d="M212 372L213 373L212 372z"/>
<path style="fill:#cbcbcb; stroke:none;" d="M225 372L226 373L225 372z"/>
<path style="fill:#6d6d6d; stroke:none;" d="M227 372L227.722 372.722L228.25 372.75L230 373L229.278 372.278L228.75 372.25L227 372z"/>
<path style="fill:#a7a7a7; stroke:none;" d="M230 372L231 373L230 372z"/>
<path style="fill:#d2d2d2; stroke:none;" d="M290 372L291 373L290 372z"/>
</svg>
